# xmcd
#
# Track frame offsets:
#	150
#	20665
#	40852
#	63454
#	88642
#	109830
#	135889
#	156837
#	174769
#	201608
#	218516
#	235465
#
# Disc length: 3471 seconds
#
# Revision: 1
# Processed by: cddbd v1.4PL0 Copyright (c) Steve Scherf et al.
# Submitted via: audiograbber 1.81.03
#
DISCID=9f0d8d0c
DTITLE=John Kilzer - Figs
DYEAR=1900
DGENRE=Blues
TTITLE0=Let My People Go
TTITLE1=Kentucky Water
TTITLE2=Memory in the Morning
TTITLE3=Woke Up In Texas
TTITLE4=Thorazine
TTITLE5=Magdolina's Letter
TTITLE6=Black Widows Room
TTITLE7=My Dear
TTITLE8=Acadian Moons
TTITLE9=The Hill
TTITLE10=Hart's Bridge Road
TTITLE11=Yesterday's Fields
EXTD=
EXTT0=
EXTT1=
EXTT2=
EXTT3=
EXTT4=
EXTT5=
EXTT6=
EXTT7=
EXTT8=
EXTT9=
EXTT10=
EXTT11=
PLAYORDER=
